<svg width="1063" height="763" viewBox="0 0 1063 763" fill="none" xmlns="http://www.w3.org/2000/svg">
<path d="M55.88 487.754L0.185059 509.95L28.0325 513.121L61.4495 521.577L69.8038 509.95H86.5122C87.6261 509.95 102.757 519.11 110.183 523.69L150.561 513.121L183.978 527.918L203.472 516.292H235.496H278.66C280.888 516.292 289.799 524.043 293.976 527.918L330.178 531.089L356.633 516.292L380.303 527.918L413.72 521.577L427.644 527.918L461.061 531.089L501.44 516.292L525.11 523.69L580.805 545.886H629.538L637.892 531.089L686.625 545.886L729.789 560.684L760.421 545.886L813.331 567.025H853.71L867.634 594.506L930.291 610.36L965.1 626.214V669.549L983.201 675.89L1006.87 697.029L991.555 723.453L979.024 761.503H1055.6L1090.41 739.307L1132.19 761.503V2.61682L1089.02 0.50293L1054.21 8.95849L988.771 112.539C961.851 124.165 907.734 147.418 906.62 147.418C905.507 147.418 868.098 197.447 849.533 222.461L761.814 273.195L697.764 324.985L679.664 319.7L644.854 281.65L639.285 255.227L644.854 220.347L633.715 200.265L598.906 191.81L537.641 209.778L501.44 200.265L462.453 224.575L395.619 284.821H373.341L324.608 315.472L242.458 365.149L221.573 413.768L183.978 433.85L121.322 449.704L55.88 487.754Z" fill="black" stroke="black"/>
</svg>
